<svg width="673" height="182" viewBox="0 0 673 182" fill="none" xmlns="http://www.w3.org/2000/svg">
<path d="M666.835 105.598C660.648 118.307 651.217 127.387 640.814 134.927C622.242 142.981 604.281 143.407 580.533 145.474C540.06 147.79 534.664 146.655 488.699 148.417C443.223 150.003 397.301 149.496 376.979 150.093C356.604 150.674 354.486 149.155 325.565 149.4C296.73 149.599 279.086 149.188 253.919 148.257C228.633 147.47 151.27 144.726 122.744 143.431C94.3054 142.4 62.8828 138.918 43.2826 134.936C41.8119 134.633 40.5097 134.34 39.349 134.056C38.0087 133.734 36.4943 133.334 35.3644 132.993C34.1973 132.643 33.2143 132.307 32.3778 131.987C32.0614 131.864 31.3178 131.577 30.8236 131.355C30.298 131.122 29.8395 130.895 29.4387 130.674C28.103 129.922 27.8745 129.497 27.9151 129.423C27.9152 129.423 27.9152 129.423 27.9153 129.423C28.0329 129.331 28.5214 129.733 30.4368 130.59C39.6609 134.228 53.8481 135.768 70.6619 137.177C102.542 139.348 105.439 140.42 148.37 142.17C191.243 143.614 216.702 143.457 267.003 144.847C317.316 146.016 328.808 143.94 399.835 144.815C470.708 145.219 478.312 142.901 548.842 139.473C576.844 137.402 611.306 137.435 637.107 129.435C655.234 117.981 667.288 99.0796 665.912 80.7879C664.998 62.5928 656.239 47.8369 649.478 37.6589C649.37 37.4997 649.261 37.3401 649.152 37.1801C617.3 16.645 554.63 15.9343 495.973 11.021C435.876 7.171 361.167 6.61071 294.486 6.53727C227.822 6.1923 133.428 9.07299 90.0075 12.821C55.2369 16.405 39.0007 15.3321 16.6045 26.2878C12.878 30.7332 9.48557 36.3271 6.95879 43.34C-1.66597 65.5393 2.79988 101.701 21.5763 122.919C26.2231 128.187 28.4851 129.804 27.6935 129.477C26.9876 129.081 23.3354 126.53 18.7027 121.041C5.2243 104.637 2.18778 86.6912 0.711034 76.1294C-0.916231 55.9831 -0.969439 44.1992 14.2684 24.3098C15.205 23.2566 16.4527 22.4367 18.0792 21.6385C45.1033 12.9688 57.4581 12.5352 72.9704 10.4297C88.958 9.2379 88.6504 8.78695 168.676 4.16292C248.666 0.199 292.631 0.288851 322.979 0.021383C353.318 -0.196387 416.804 1.27011 466.144 3.30112C515.385 6.8422 616.305 5.85091 654.588 33.4838C654.658 33.5854 654.729 33.6866 654.798 33.7873C666.472 50.9246 669.566 61.556 671.338 70.9377C672.601 80.2968 673.849 89.8296 666.835 105.598Z" fill="#1A1A1A"/>
<path d="M517.523 145.825L625.153 134.896L606.989 167.809C606.092 169.436 604.192 170.231 602.403 169.727L517.523 145.825Z" fill="#1A1A1A"/>
<path d="M542.257 153.434C547.377 154.738 551.221 156.431 557.441 158.096C563.66 159.761 564.673 159.723 571.752 161.789C578.83 163.855 585.989 165.649 589.114 166.663C592.24 167.676 592.678 167.397 597.142 168.743C599.098 169.333 600.722 169.802 602.262 170.226C604.204 170.771 606.372 169.903 607.352 168.01C607.482 167.757 607.615 167.499 607.75 167.235C609.61 163.605 615.568 152.586 617.904 148.673C620.241 144.759 622.516 140.081 623.97 137.315C624.423 136.453 624.769 135.77 625.028 135.242C625.137 135.018 625.171 134.906 625.149 134.894C625.149 134.894 625.149 134.894 625.149 134.894C625.122 134.879 625.01 135.02 624.852 135.298C624.086 136.648 622.922 138.654 621.5 140.999C618.849 145.371 618.781 145.971 615.354 151.959C612.107 157.634 609.97 161.097 606.52 167.55C606.356 167.859 606.141 168.151 605.878 168.41C604.886 169.377 603.546 169.549 602.54 169.24C597.674 167.804 594.874 166.678 585.908 164.428C574.791 161.638 573.794 160.729 562.826 157.557C551.858 154.384 537.895 150.799 531.277 148.907C527.421 147.804 522.796 146.47 517.744 145.04L517.606 146.637C521.344 146.262 525.304 145.853 529.35 145.408C539.049 144.343 551.052 143.327 561.753 142.097C572.453 140.867 587.584 139.15 594.57 138.319C601.556 137.489 603.259 137.289 610.002 136.678C613.879 136.327 619.209 135.745 623.698 135.133C625.958 134.825 625.433 134.768 623.146 134.948C619.8 135.211 617.066 135.54 615.332 135.579C611.869 135.657 610.398 135.701 606.076 136.299C601.754 136.898 599.674 136.746 597.149 137.044C594.625 137.343 594.688 137.55 581.814 138.693C568.94 139.835 561.887 140.509 557.014 140.965C552.141 141.42 541.992 142.636 534.05 143.376C529.902 143.762 523.52 144.41 517.441 145.02L517.304 146.605C522.679 148.126 527.806 149.583 530.797 150.48C537.059 152.356 537.136 152.131 542.257 153.434Z" fill="#1A1A1A"/>
</svg>
