<svg width="543" height="400" viewBox="0 0 543 400" fill="none" xmlns="http://www.w3.org/2000/svg">
<path d="M527.819 196.289C535.393 165.823 534.049 138.663 517.155 105.016C507.32 87.3766 499.137 79.3292 489.76 70.9215C481.488 63.9142 471.33 56.7853 452.426 48.5003C411.492 30.8576 366.986 23.5165 347.25 21.5039C327.526 19.7703 325.508 17.7564 297.267 16.8202C269.004 16.3265 251.893 16.7468 227.213 18.3056C202.362 18.4972 127.336 33.7624 102.844 47.4066C77.7043 58.5569 50.8963 75.693 37.6952 89.3482C33.5127 93.4708 30.3697 96.9655 28.0487 99.6367C27.0637 100.774 26.5606 101.261 26.4815 101.199C26.4815 101.199 26.4814 101.199 26.4814 101.199C26.3863 101.124 26.9507 100.196 28.1714 98.6864C34.1011 91.3189 43.7922 80.9513 57.1003 70.6763C82.4826 52.6461 85.9732 51.1159 125.262 36.0011C165.122 22.7476 190.338 17.046 239.728 13.6984C289.112 12.3565 301.002 8.44275 370.243 19.7296C432.897 34.3262 446.051 33.7397 494.105 65.6056C497.858 68.618 501.545 71.898 505.358 75.8094C564.196 130.143 530.021 234.504 499.834 262.051C490.156 273.399 477.47 284.955 461.258 293.356C431.752 308.734 395.268 319.689 356.908 325.362C304.326 333.757 239.927 333.109 180.621 333.907L181.78 333.653C175.022 336.503 168.319 339.315 161.695 342.076C137.076 352.335 108.314 364.337 80.197 376.064C78.2414 376.972 75.7374 375.448 75.6388 373.308C74.2282 354.455 72.8427 335.913 71.5795 318.924L72.6574 320.431C52.1411 309.99 38.6768 294.543 30.809 282.661C27.6184 277.825 25.1259 273.26 23.0786 268.96C12.1201 240.123 11.7884 226.932 9.69773 191.347C9.20599 167.787 9.96531 134.204 21.6037 108.691C24.7662 102.442 26.9785 100.727 26.5439 101.413C26.2464 102.079 23.6547 105.614 21.1879 112.037C14.2966 131.106 13.1589 148.126 12.7239 158.511C12.5577 179.449 12.7081 188.305 14.1171 214.618C16.1962 240.876 20.5118 252.981 26.2181 266.586C26.3256 266.821 26.4315 267.049 26.5359 267.27C29.3587 273.044 30.9471 276.491 36.0929 283.948C41.4469 290.879 50.0082 304.044 74.2838 316.711L75.5055 317.237L75.6254 318.587C76.1915 324.931 76.8277 331.964 77.5442 339.779C78.6279 351.6 79.6332 362.614 80.5683 372.897C80.5129 371.798 79.243 371.03 78.2427 371.487C126.228 350.569 156.781 337.361 179.215 327.647L180.438 327.379C182.545 327.309 184.611 327.249 186.638 327.196C216.461 326.235 278.661 328.333 326.677 322.968C360.238 319.875 418.314 309.187 458.299 287.589C475.154 278.88 487.284 266.769 494.698 257.939C517.724 226.867 517.635 226.031 527.819 196.289Z" fill="#1A1A1A"/>
<path d="M185.437 328.277C146.696 328.148 104.349 325.677 74.0633 317.715L78.2461 370.419C78.3539 371.776 79.7579 372.632 81.0139 372.105L185.437 328.277Z" fill="#1A1A1A" stroke="#1A1A1A" stroke-width="2"/>
</svg>
