<svg width="36" height="32" viewBox="0 0 36 32" fill="none" xmlns="http://www.w3.org/2000/svg">
<path d="M17.9073 11.4413C17.9073 11.4413 18.3085 1.53199 10.3528 0.688789C-0.324028 -0.442819 -0.639221 9.74926 2.83264 14.8442C8.9768 23.8608 19.8675 30.6018 19.8675 30.6018C23.3195 24.1587 32.7248 19.0748 34.0721 11.2918C34.6836 7.75969 32.0467 1.20043 24.6426 2.6107C18.3563 3.80807 17.9073 11.4413 17.9073 11.4413Z" fill="#148270"/>
<path d="M10.2935 1.24816C10.333 0.875244 10.3725 0.502333 10.4121 0.129422C12.352 0.185458 14.4114 0.961001 15.8651 2.43767C18.2583 4.89669 19.0933 8.19762 19.1966 11.4935L16.6192 11.3656C16.827 7.11215 19.3445 1.99535 24.3622 1.13863C24.7736 1.05954 25.1684 1.00193 25.5876 0.963188C31.2834 -0.015202 36.5283 5.91871 35.5234 11.543C33.4049 20.8612 24.6459 24.705 21.0122 31.2151C20.6507 31.9071 19.8522 32.1099 19.1841 31.706C12.5879 27.2657 6.51616 22.0525 2.02398 15.3953C-0.919231 10.9042 -1.13816 3.1637 4.65801 0.697836C6.53488 -0.0737453 8.51949 -0.107379 10.4121 0.129422C10.3725 0.502333 10.333 0.875244 10.2935 1.24816C8.51228 1.10232 6.72755 1.24176 5.20746 1.94919C0.675385 3.97662 1.01543 10.5919 3.64131 14.2932C8.0733 20.4311 14.1984 25.4188 20.551 29.4976L18.7229 29.9886C23.0454 22.4153 31.2739 18.3062 32.6208 11.0405C33.1501 7.29145 29.9183 3.27032 25.8618 3.95063C25.5478 3.97965 25.2451 4.0226 24.923 4.08277C21.67 4.54967 19.6461 8.04583 19.1955 11.5171C19.1045 13.0627 16.5554 12.9361 16.6181 11.3891C16.7151 8.74624 16.1985 5.72397 14.5375 3.65319C13.5287 2.38019 12.0104 1.54269 10.2935 1.24816ZM10.4121 0.129422L10.2935 1.24816L10.4121 0.129422Z" fill="#1A1A1A"/>
</svg>
