<svg width="54" height="81" viewBox="0 0 54 81" fill="none" xmlns="http://www.w3.org/2000/svg">
<path d="M52.3762 61.1801C51.8714 63.5709 53.5493 65.5445 53.1708 68.4691C52.9431 70.228 52.5074 71.0732 52.2097 72.2009C52.0849 73.4304 51.1574 74.7044 49.6447 74.9917C49.1796 75.057 48.6527 75.1652 48.029 75.3367C44.778 76.2304 41.3515 76.2923 39.9633 76.9747C38.5753 77.6572 38.1829 76.5519 36.1529 77.2394C34.123 77.9269 32.8298 78.042 30.9311 78.0525C29.0323 78.063 23.3703 78.9158 21.4303 79.7949C20.029 80.4299 18.3431 80.4478 16.9741 80.4482C16.1069 80.5334 15.4786 79.8775 15.3488 79.3707C15.1588 78.7695 15.4505 78.2805 15.7085 78.1059C15.8212 78.0245 15.9156 78.0475 15.9652 78.1011C15.9652 78.1011 15.9652 78.1012 15.9653 78.1012C16.027 78.1711 16.0325 78.2828 15.9767 78.3817C15.8583 78.5804 15.8528 78.8864 16.0323 79.1115C16.2091 79.3456 16.5244 79.3929 16.7189 79.226C16.9106 79.1373 17.1078 79.0422 17.3096 78.9403C19.4642 77.8526 19.8546 78.476 22.8708 77.5185C25.887 76.561 27.6074 75.5465 31.3182 75.1954C35.029 74.8443 35.5071 72.9714 40.8266 72.8656C45.0097 72.7823 46.007 71.5962 48.6986 70.4604C48.0408 70.5017 47.2889 71.0733 47.192 71.9796C47.1583 71.5297 47.1383 71.0413 47.1371 70.5042C47.1257 65.288 48.4161 58.7611 48.4716 55.6194C48.5102 53.4348 48.5097 50.727 48.6523 47.7877C48.5533 49.0015 50.1966 49.7733 51.0576 48.8855C50.6543 49.2359 50.2434 49.5855 49.8254 49.9326C46.3947 52.7814 42.7712 56.959 38.8736 59.984C34.976 63.009 29.5094 67.3329 26.9076 69.2481C24.3059 71.1632 23.6762 71.6348 21.5586 73.8959C20.3413 75.1956 18.4642 76.7698 16.63 77.8307C15.7069 78.3647 15.6575 77.9643 16.3194 77.1382C17.2874 75.9301 18.3137 75.1888 18.6147 74.3526C19.216 72.6818 19.4946 71.9965 21.2784 70.9942C23.062 69.9918 23.0154 68.5612 23.9512 67.8646C24.8872 67.1681 25.3065 67.6493 29.3012 63.2823C33.296 58.9152 35.5838 56.6269 37.1429 55.0231C38.702 53.4193 42.5009 50.6578 45.0367 48.0385C45.7601 47.2913 46.7292 46.3591 47.7907 45.3557C49.7223 43.3156 53.7733 45.0194 53.517 48.0024C53.4035 51.0322 53.2889 54.1275 53.3993 55.8201C53.5947 58.8147 52.881 58.7894 52.3762 61.1801ZM39.2573 6.3154C37.0852 9.44876 37.197 12.9137 34.7574 16.8467C32.3178 20.7797 31.165 20.9372 28.8059 25.6798C26.4469 30.4221 23.3409 34.7585 22.5454 37.0098C21.75 39.261 20.6113 38.9206 19.2294 41.9793C17.8475 45.0378 16.7398 46.7435 15.0021 49.1284C13.2642 51.5135 8.66021 59.2434 7.49586 62.3336C6.46346 65.0737 4.38239 67.6509 3.05588 69.5069C2.8336 69.853 2.46028 70.094 2.10618 70.1532C1.09277 70.3099 0.541905 69.4667 0.59529 68.9824C0.604698 68.7684 0.702591 68.6908 0.77345 68.6983C0.773498 68.6983 0.773546 68.6983 0.773594 68.6983C0.867548 68.7104 0.933796 68.8334 0.985994 69.0023C1.05565 69.2394 1.28748 69.4555 1.58749 69.4929C1.88946 69.5353 2.17898 69.3733 2.27065 69.0766C2.54188 68.4093 2.82594 67.6623 3.10675 66.8496C4.32147 63.3339 5.11911 63.314 7.21743 58.8176C9.31573 54.3212 10.183 51.404 13.3467 46.4942C16.5103 41.5844 15.6313 39.5768 20.4463 32.8375C25.2611 26.0983 24.0853 24.4669 27.8122 17.164C30.2378 12.4112 33.5626 7.11287 36.2232 2.78694C35.6403 3.90186 36.7425 5.13164 37.7552 4.87808C35.9742 5.08457 34.4149 5.28727 33.1995 5.50335C28.3348 6.36824 21.8169 7.62848 14.864 8.50178C12.657 8.77898 10.3002 9.16638 7.86474 9.59178C8.43453 9.51474 8.92123 9.01878 8.97857 8.42995C8.5801 13.3483 8.21158 18.5408 7.47457 23.3364C6.29846 30.989 4.69982 41.8144 3.84946 46.8047C2.99913 51.7948 2.79842 53.0118 2.54645 57.8703C2.40162 60.663 1.9087 64.4817 1.12799 67.6716C0.735077 69.277 0.445205 68.8762 0.449187 67.2222C0.455024 64.8034 0.799288 62.8509 0.512516 61.5764C-0.0606541 59.0295 -0.270563 57.9503 0.507099 54.8815C1.28469 51.8129 0.351391 50.2402 0.652457 48.4365C0.953591 46.6328 1.58564 46.7246 1.99726 37.4442C2.40888 28.1636 2.7779 23.09 3.0016 19.5821C3.16476 17.0234 3.88108 12.4755 4.39537 7.98277C4.52346 6.53306 5.71984 5.28339 7.1407 5.08055C8.35512 4.8946 9.54589 4.6935 10.6685 4.4729C16.2898 3.36829 27.8112 1.70465 32.3921 0.638065C34.7107 0.0982094 35.8871 0.0118742 36.9773 0.0314207C39.4051 -0.327027 41.7482 2.44126 40.2385 4.98743C39.946 5.35728 39.6236 5.78703 39.2573 6.3154Z" fill="black"/>
</svg>
