<svg width="139" height="74" viewBox="0 0 139 74" fill="none" xmlns="http://www.w3.org/2000/svg">
<path d="M72.8049 30.0809C73.1035 33.6148 72.2051 36.6824 70.48 39.4572C68.9731 41.7871 66.9226 43.7645 64.0803 45.325C57.7618 48.3704 56.5125 47.9439 48.9285 49.5347C41.0996 50.9522 33.4257 48.1756 30.1907 47.1078C26.8453 46.0067 27.0004 44.9011 22.8934 42.373C18.8645 39.6802 16.8642 37.3493 14.5237 33.9284C11.8855 30.5908 6.05668 19.3963 4.11524 15.1952C1.902 11.0314 1.07866 5.78233 0.426859 2.76366C0.21447 1.80294 0.0861665 1.02188 0.0108605 0.41391C-0.0209612 0.156237 0.0211928 0.02146 0.0928352 0.00243841C0.0928808 0.00242661 0.0929331 0.00241123 0.0929787 0.00239942C0.182284 -0.021225 0.317187 0.134271 0.413886 0.449076C0.88978 1.99799 1.6405 4.12609 2.80031 6.64004C5.02327 11.2733 4.46569 12.0559 7.52446 18.2093C10.7624 24.2305 13.2242 27.5347 17.9449 33.7706C23.2159 39.6797 25.285 40.1722 34.9603 44.7272C45.3925 47.9252 47.212 45.7625 56.9223 42.2655C60.2743 40.7876 64.0805 38.6377 66.3667 36.1057C68.5089 33.7418 68.9909 30.8053 67.7936 28.7907C66.6248 26.7205 64.3483 26.2192 62.9293 26.7017C60.8879 27.2521 58.7443 29.5952 57.3481 32.7822C55.8792 36.2137 56.0712 41.4751 57.0697 46.4032C58.771 55.4543 65.9506 65.8631 75.4581 68.3979C85.0763 71.9198 99.5888 64.8062 105.162 61.0044C111.054 57.1658 112.314 56.1423 117.24 51.3163C119.875 48.6768 123.741 44.8956 127.137 41.8096C128.887 40.2083 128.774 40.8339 127.305 42.6966C125.146 45.4164 123.271 47.1319 122.242 48.7557C120.315 51.8382 119.563 53.0361 115.884 55.702C112.407 58.1396 111.215 60.4383 109.186 61.8176C106.804 63.1454 107.098 63.4207 95.4349 69.7562C83.1505 75.7298 74.2257 73.5352 69.4601 71.3011C64.1329 69.3495 56.7027 60.4021 54.0146 52.4089C52.1862 47.4728 49.7514 38.863 52.9301 30.7361C54.7631 26.4809 58.2466 22.8926 61.5683 21.9613C66.0315 20.7039 68.5107 22.4974 69.9014 23.7645C71.28 25.1977 72.394 26.8009 72.8049 30.0809ZM133.207 38.334C131.756 38.815 131.616 40.9273 129.844 41.5386C128.089 42.1123 127.478 41.3651 125.682 42.3256C123.864 43.282 121.731 43.2887 120.981 43.9081C120.216 44.5304 119.814 43.443 118.65 44.005C117.473 44.5599 116.669 44.5725 115.505 44.3959C114.335 44.2568 110.979 44.2792 109.709 44.667C108.422 45.1204 107.012 44.1344 106.251 43.7542C106.001 43.6371 105.821 43.5053 105.694 43.382C105.64 43.3297 105.632 43.249 105.652 43.1778C105.652 43.1777 105.652 43.1777 105.652 43.1776C105.678 43.0889 105.747 43.0145 105.829 43.025C106.229 43.0775 106.859 43.0688 107.592 42.8311C108.932 42.3569 109.014 43.0698 110.784 42.7253C112.54 42.3313 113.464 41.5814 115.567 41.6226C117.707 41.6083 117.732 39.8477 120.789 39.9442C123.895 39.9477 123.601 38.1169 126.076 36.759C128.402 35.4725 131.701 34.4871 132.793 33.4154C132.881 33.3328 132.959 33.2561 133.026 33.1842C133.3 32.8892 133.65 32.5023 133.955 32.1442C133.998 32.0938 134.022 32.0636 134.064 32.0143C134.089 31.9853 134.107 31.9625 134.122 31.9447C134.138 31.9257 134.102 31.9629 134.179 31.8802C134.187 31.8716 134.195 31.8621 134.222 31.8359C134.236 31.8218 134.252 31.805 134.294 31.7667C134.316 31.7466 134.342 31.7221 134.398 31.6768C134.465 31.6279 134.502 31.5737 134.813 31.4045C134.996 31.3381 135.196 31.1271 136.075 31.1464C136.511 31.1619 137.269 31.4182 137.732 31.9962C138.199 32.5641 138.274 33.1353 138.283 33.4596C138.276 34.1208 138.149 34.283 138.102 34.4352C138.042 34.5764 138.003 34.645 137.972 34.7004C137.856 34.8953 137.835 34.91 137.809 34.949C137.764 35.0079 137.755 35.0184 137.743 35.0325C137.713 35.0694 137.724 35.0568 137.716 35.0659C137.709 35.0752 137.705 35.0808 137.7 35.0871C137.627 35.1829 137.553 35.2827 137.488 35.372C137.41 35.4784 137.341 35.5742 137.265 35.6796C137.183 35.7933 137.112 35.8939 137.036 36.0013C136.4 36.8974 135.745 37.8484 134.996 38.8344C133.486 40.8106 132.649 43.804 131.26 46.1629C129.819 48.531 128.238 52.1587 127.525 53.8888C126.798 55.6074 126.64 56.0498 126.607 57.8421C126.595 58.8578 126.33 60.2305 125.787 61.3937C125.514 61.9853 125.194 61.8319 125.079 61.203C124.913 60.2838 125.137 59.5793 124.781 59.0636C124.073 58.0459 123.811 57.5923 124.461 56.4801C125.112 55.4053 124.16 54.6363 124.417 53.9816C124.7 53.3169 125.228 53.4691 125.678 49.9239C126.19 46.3728 126.86 44.4992 127.273 43.1973C127.692 41.8814 129.394 39.5779 130.347 37.5632C130.811 36.5589 131.702 35.1063 132.652 33.7572C132.895 33.4106 133.136 33.0769 133.378 32.7522C133.505 32.5811 133.619 32.4287 133.745 32.2651C133.791 32.204 133.881 32.0905 133.93 32.0264C133.938 32.0143 134.031 31.9021 134.001 31.9352C134 31.9363 133.997 31.9392 133.983 31.9559C133.96 31.9887 133.98 31.9451 133.825 32.1727C133.802 32.2092 133.771 32.2563 133.724 32.3438C133.676 32.4431 133.606 32.5308 133.499 32.9233C133.458 33.1275 133.365 33.417 133.478 34.0282C133.538 34.6169 134.283 35.6534 135.11 35.868C135.899 36.1129 136.35 35.9587 136.598 35.8991C136.856 35.8215 136.983 35.7521 137.083 35.6998C137.435 35.4962 137.45 35.4504 137.517 35.4013C137.568 35.3572 137.591 35.3354 137.61 35.3171C137.677 35.2527 137.68 35.2474 137.692 35.2353C137.722 35.2043 137.703 35.2248 137.697 35.2315C137.693 35.2366 137.688 35.2429 137.682 35.25C137.67 35.2642 137.655 35.2817 137.637 35.302C137.147 35.8699 136.709 36.3664 136.471 36.713C136.398 36.8157 136.322 36.9131 136.246 37.0048C135.083 38.3056 134.574 37.8327 133.207 38.334Z" fill="black"/>
</svg>
