<svg width="14" height="24" viewBox="0 0 14 24" fill="none" xmlns="http://www.w3.org/2000/svg">
<g clip-path="url(#clip0_793_2467)">
<path d="M0.545037 14.0735C0.545037 14.0735 0.566101 14.0735 0.576633 14.0735C1.73253 14.0919 2.89106 14.1104 4.04696 14.1288C4.02853 17.2621 4.01009 20.398 3.99166 23.5313C3.99166 23.9078 4.34712 24.05 4.62359 23.9658C6.06385 23.9789 7.50675 23.9895 8.94701 24.0026C9.27614 24.0053 9.42885 23.7314 9.40252 23.476C9.40779 23.4418 9.41042 23.4023 9.41042 23.3628C9.27877 20.2032 9.20505 17.0409 9.18925 13.8787C10.2978 13.9445 11.401 13.8523 12.4911 13.6154C12.7386 13.5627 12.8386 13.3731 12.8307 13.1809C12.8465 13.1414 12.8571 13.0993 12.8623 13.0545C13.0256 11.7828 13.2072 10.5163 13.4047 9.24981C13.4574 8.90752 13.1809 8.67581 12.915 8.65738C12.886 8.65211 12.8544 8.64948 12.8228 8.64948H9.31037C9.29984 8.11498 9.29984 7.58047 9.31037 7.04597C9.3209 6.5615 9.19452 5.6768 9.50258 5.26342C9.80801 4.85003 10.7875 4.77631 11.2535 4.71838C11.9276 4.63412 12.6043 4.64992 13.2757 4.73681C13.618 4.78157 13.7628 4.49721 13.718 4.226C13.7259 4.18914 13.7286 4.15228 13.7286 4.11015C13.6996 2.90949 13.6075 1.7141 13.4521 0.523975C13.4337 0.376526 13.36 0.263306 13.2625 0.189581C13.1888 0.076361 13.0624 -0.00262965 12.8834 0.00263639C10.3846 0.078994 7.58574 -0.297528 5.52672 1.44817C4.62885 2.20911 4.18124 3.31498 3.9548 4.44455C3.67307 5.84795 3.56775 7.29611 3.56775 8.72321C3.56775 8.73111 3.56775 8.73901 3.56775 8.7469C2.93319 8.75744 2.29863 8.76534 1.66407 8.77587C1.16906 8.78377 0.358092 8.63632 0.126386 9.22085C0.0210654 9.48678 0.0631938 9.80801 0.0579277 10.0897C0.0526617 10.461 0.0473956 10.8323 0.0394966 11.2061C0.0263314 12.0119 0.0157994 12.8176 0.00263424 13.6233C-0.00263181 13.9629 0.287001 14.113 0.54767 14.0761L0.545037 14.0735ZM1.20329 9.72902C1.47713 9.72375 1.75096 9.72112 2.0248 9.71586C2.66199 9.70532 3.30181 9.69742 3.939 9.68689C4.31026 9.68163 4.45508 9.32617 4.37345 9.05233C4.45508 8.97598 4.51037 8.86539 4.51037 8.72057C4.51037 7.45146 4.59463 6.17444 4.82107 4.92376C5.01064 3.86791 5.34504 2.82787 6.19287 2.11432C7.9254 0.658259 10.4294 0.974222 12.5543 0.953157C12.6622 1.87735 12.7333 2.80417 12.7675 3.73363C12.1409 3.6915 11.5168 3.7152 10.8902 3.80999C10.2161 3.91267 9.313 4.04959 8.82589 4.57883C8.37565 5.06857 8.39934 5.79265 8.37565 6.41141C8.34668 7.27504 8.34405 8.13868 8.36775 8.99967C8.36775 9.03127 8.37301 9.06023 8.37828 9.0892C8.36775 9.33407 8.51783 9.58684 8.83643 9.58684H12.4015C12.2409 10.64 12.0935 11.6933 11.9566 12.7491C10.8902 12.9492 9.81064 12.9913 8.72584 12.8834C8.49413 12.8597 8.35195 12.9834 8.29929 13.1493C8.26243 13.2151 8.24136 13.2915 8.24136 13.3837C8.25189 16.6038 8.32299 19.8214 8.45464 23.0389L4.94745 23.01C4.96588 19.953 4.98431 16.8961 5.00011 13.8392C5.00011 13.7707 4.98695 13.7075 4.96588 13.6549C4.96588 13.4205 4.81053 13.1835 4.50774 13.1783C3.32288 13.1598 2.14065 13.1414 0.955788 13.123C0.971587 12.0461 0.990018 10.9692 1.00582 9.89227C1.00582 9.87647 1.01108 9.80011 1.01371 9.72112C1.07691 9.72112 1.1401 9.72112 1.20329 9.71849V9.72902Z" fill="black"/>
</g>
<defs>
<clipPath id="clip0_793_2467">
<rect width="13.7259" height="24" fill="white"/>
</clipPath>
</defs>
</svg>
