<svg width="24" height="24" viewBox="0 0 24 24" fill="none" xmlns="http://www.w3.org/2000/svg">
<g clip-path="url(#clip0_788_3847)">
<path fill-rule="evenodd" clip-rule="evenodd" d="M22.74 9.33005C22.26 8.93005 19.74 7.00005 17.86 5.67005C17.795 5.62231 17.7137 5.60234 17.634 5.61453C17.5543 5.62672 17.4827 5.67007 17.435 5.73505C17.3873 5.80003 17.3673 5.88131 17.3795 5.96101C17.3917 6.04072 17.435 6.11231 17.5 6.16005C18.34 6.80005 19.16 7.45005 19.88 8.03005C22.58 10.1901 22.35 9.89005 22.5 10.9401C20.7835 11.4747 19.1117 12.1434 17.5 12.9401C15.71 13.8201 14.5 14.6101 13.24 15.3001C12.6015 14.8727 11.8842 14.5769 11.13 14.4301C10.4713 14.5449 9.84628 14.8045 9.30001 15.1901C8.74001 14.7501 8.00001 14.1901 7.19001 13.5501C5.55146 12.3852 3.81495 11.3647 2.00001 10.5001C2.10001 9.77005 2.22001 9.89005 2.14001 9.83005C3.00001 9.00005 4.73001 7.50005 6.52001 6.13005C6.59294 6.07701 6.64182 5.99717 6.65588 5.90809C6.66995 5.81901 6.64805 5.72799 6.59501 5.65505C6.54196 5.58212 6.46212 5.53324 6.37304 5.51918C6.28396 5.50511 6.19294 5.52701 6.12001 5.58005C4.69001 6.58005 2.56001 8.09005 1.35001 9.13005C0.310006 10.0001 0.290006 20.0801 0.640006 22.4601C0.650019 22.538 0.690193 22.6088 0.751897 22.6575C0.813601 22.7061 0.891912 22.7285 0.970006 22.7201C0.970006 22.7201 1.64001 22.3601 1.66001 22.3501C4.13096 20.0421 6.83554 17.9977 9.73001 16.2501C11.1 15.4501 11 15.4201 12.25 16.1001C15.4819 18.0829 18.6063 20.236 21.61 22.5501C21.61 22.8401 21.9 22.7901 19.5 22.8401C17.1 22.8901 3.07001 22.9301 1.71001 22.8401C1.62858 22.854 1.5547 22.8962 1.50144 22.9594C1.44817 23.0225 1.41895 23.1024 1.41895 23.1851C1.41895 23.2677 1.44817 23.3476 1.50144 23.4107C1.5547 23.4739 1.62858 23.5161 1.71001 23.5301C3.39001 23.6301 21.36 24.2601 22.25 23.7801C22.3753 23.7124 22.4766 23.6076 22.54 23.4801C23.15 22.3101 24.4 10.7101 22.74 9.33005ZM1.22001 21.8101C1.22001 19.3401 1.89001 11.3701 1.90001 11.2901C4.01447 12.9084 6.2474 14.3659 8.58001 15.6501C5.9212 17.4446 3.45479 19.5089 1.22001 21.8101ZM21.74 21.8601C19.2502 19.6769 16.6358 17.6402 13.91 15.7601C19.14 13.7601 21.14 12.1501 22.57 11.6101C22.6221 15.0454 22.3442 18.4778 21.74 21.8601Z" fill="black"/>
<path fill-rule="evenodd" clip-rule="evenodd" d="M6.59002 8.33004C6.94002 9.80004 10.53 13.17 12.24 13.33C13.95 13.49 17 8.81004 16.85 7.86004C16.7 6.91004 15.52 7.00004 14.63 6.79004H14.26C13.874 4.57454 13.3565 2.384 12.71 0.230042C12.6795 0.145173 12.6166 0.0758953 12.535 0.0374503C12.4534 -0.000994619 12.3599 -0.00545811 12.275 0.0250418C12.1902 0.0555417 12.1209 0.118507 12.0824 0.200085C12.044 0.281663 12.0395 0.375173 12.07 0.460042C12.77 2.53004 13.33 6.93004 13.46 7.22004C13.67 7.68004 14.19 7.65004 14.46 7.71004C14.85 7.81004 15.52 7.85004 15.82 7.95004C15.76 8.03004 15.75 8.25004 15.66 8.42004C15 9.73004 13 12.24 12.34 12.18C11.11 12.07 8.00002 9.05004 7.72002 8.25004C7.80703 8.19421 7.90123 8.15048 8.00002 8.12004C10.25 7.55004 10.28 8.06004 10.61 6.12004C10.61 6.04004 11.44 0.390042 11.42 0.310042C11.31 -0.0899582 10.93 0.0100418 10.8 0.250042C10.67 0.490042 10.59 1.33004 10.15 4.00004C9.65002 7.10004 9.55002 6.63004 9.49002 6.89004C8.13002 7.16004 6.28002 7.05004 6.59002 8.33004Z" fill="black"/>
</g>
<defs>
<clipPath id="clip0_788_3847">
<rect width="24" height="24" fill="white"/>
</clipPath>
</defs>
</svg>
