<svg width="24" height="24" viewBox="0 0 24 24" fill="none" xmlns="http://www.w3.org/2000/svg">
<g clip-path="url(#clip0_788_3818)">
<path fill-rule="evenodd" clip-rule="evenodd" d="M24 17.35C24 16.67 24.06 15.68 23.42 15.35C22.13 14.64 18.9 14.6 17.69 15.35C17.02 15.78 17.14 16.79 16.95 17.35C16.88 17.56 8.77 17.71 7.28 17.27C6.36 17 7 16 6 15.42C5.49 15.12 1.26 15.42 0.840001 15.5C-0.839999 15.93 0.430001 20.5 0.980001 22.12C0.986313 22.1649 1.00239 22.2078 1.0271 22.2458C1.05182 22.2838 1.08456 22.3159 1.12303 22.3399C1.1615 22.3639 1.20476 22.3791 1.24976 22.3846C1.29476 22.39 1.34041 22.3855 1.38349 22.3714C1.42656 22.3573 1.46602 22.3339 1.49908 22.3029C1.53214 22.2719 1.55799 22.234 1.57482 22.1919C1.59165 22.1498 1.59905 22.1045 1.59649 22.0593C1.59393 22.014 1.58147 21.9699 1.56 21.93C1.17 20.71 0.450001 17.73 0.810001 16.54C0.810001 16.39 0.900001 16.27 1.02 16.24C2.43352 16.1229 3.85308 16.0962 5.27 16.16C5.41 16.16 5.56 16.25 5.59 16.21C5.99 16.54 5.59 17.75 6.98 18.21C8.37 18.67 16.52 18.89 17.47 18.4C18.06 18.09 18.13 17.4 18.22 16.75C18.22 16.59 18.43 16.4 18.34 16.32C19.0362 16.0342 19.7894 15.9144 20.54 15.97C21.2752 16.0223 22.0065 16.1192 22.73 16.26C23 16.1 22.81 17.26 22.83 17.45C22.89 18.24 22.71 21.45 22.08 21.99C21.45 22.53 15.08 22.73 14.2 22.75C1.89 23.05 1.53 22.25 1.41 22.92C1.40139 22.9647 1.40185 23.0107 1.41135 23.0552C1.42086 23.0998 1.43921 23.1419 1.46533 23.1792C1.49144 23.2166 1.52479 23.2482 1.56338 23.2724C1.60198 23.2966 1.64504 23.3128 1.69 23.32C2.45 23.47 20.88 24.32 22.76 22.85C23.84 22 24.07 18.56 24 17.35Z" fill="black"/>
<path fill-rule="evenodd" clip-rule="evenodd" d="M6.80001 10.67C7.07001 12.15 10.36 15.74 11.97 15.97C13.58 16.2 16.61 11.55 16.53 10.59C16.45 9.62995 15.35 9.64995 14.47 9.39995C14.373 9.35568 14.2727 9.31891 14.17 9.28995C14.17 9.20995 14 6.89995 14 6.99995C13.86 5.46995 13 2.15995 12.94 0.669951C12.94 0.578451 12.9037 0.490699 12.839 0.425999C12.7743 0.361299 12.6865 0.324951 12.595 0.324951C12.5035 0.324951 12.4158 0.361299 12.3511 0.425999C12.2864 0.490699 12.25 0.578451 12.25 0.669951C12.25 2.25995 13.02 5.51995 13.11 7.06995C13.1847 7.82095 13.2215 8.57524 13.22 9.32995C13.29 10.24 13.85 10.2 14.22 10.33C14.59 10.46 15.22 10.52 15.5 10.63C15.0281 11.6786 14.4048 12.6523 13.65 13.52C13.41 13.81 12.49 14.83 12.16 14.79C10.96 14.62 8.16001 11.37 7.99001 10.59L10.18 10.11C10.4464 9.94642 10.637 9.68388 10.71 9.37995C10.88 8.86995 11.71 0.639951 11.71 0.569951C11.62 0.159951 11.23 0.229951 11.08 0.489951C11.0062 0.654772 10.946 0.825338 10.9 0.999951C10.22 6.33995 9.96001 8.39995 9.90001 8.77995C9.90001 8.96995 9.64001 9.13995 9.71001 9.24995C8.79001 9.53995 6.55001 9.26995 6.80001 10.67Z" fill="black"/>
<path fill-rule="evenodd" clip-rule="evenodd" d="M0.600003 14.8299C0.639181 14.8561 0.683507 14.8735 0.730001 14.8811C0.776494 14.8887 0.824078 14.8863 0.869552 14.874C0.915025 14.8617 0.957335 14.8398 0.993635 14.8097C1.02994 14.7797 1.05938 14.7423 1.08 14.6999C1.24918 14.3956 1.393 14.0778 1.51 13.7499C2.68 11.3999 2.51 11.9299 2.93 10.9399C3.198 10.1495 3.63867 9.42872 4.22 8.82989C5.27277 8.43883 6.37204 8.18671 7.49 8.07989C7.5815 8.07989 7.66926 8.04354 7.73396 7.97884C7.79866 7.91414 7.835 7.82639 7.835 7.73489C7.835 7.64339 7.79866 7.55564 7.73396 7.49094C7.66926 7.42624 7.5815 7.38989 7.49 7.38989C6.16463 7.36792 4.84537 7.57427 3.59 7.99989C2.31 8.85989 1.79 10.5899 0.820003 13.5299C0.690003 13.8399 0.320003 14.5699 0.600003 14.8299Z" fill="black"/>
<path fill-rule="evenodd" clip-rule="evenodd" d="M18 7.7099C18.6075 7.73268 19.205 7.87186 19.76 8.1199C20.44 8.6799 21.98 13.3299 22.21 14.4499C22.2376 14.528 22.292 14.5938 22.3636 14.6356C22.4352 14.6774 22.5192 14.6924 22.6009 14.678C22.6825 14.6636 22.7563 14.6207 22.8093 14.557C22.8622 14.4932 22.8908 14.4128 22.89 14.3299C22.68 12.5599 21.89 8.2699 20.42 7.2499C19.6779 6.90311 18.8505 6.78142 18.04 6.8999C17.9 6.8999 15.34 6.8999 15.3 7.3299C15.26 7.7599 16.55 7.5399 18 7.7099Z" fill="black"/>
</g>
<defs>
<clipPath id="clip0_788_3818">
<rect width="24" height="24" fill="white"/>
</clipPath>
</defs>
</svg>
