<svg width="24" height="24" viewBox="0 0 24 24" fill="none" xmlns="http://www.w3.org/2000/svg">
<g clip-path="url(#clip0_793_2461)">
<path d="M12.1383 17.4311C14.2651 17.3733 16.2492 15.9696 17.0574 14.0099C17.8838 12.0015 17.4159 9.27915 15.9545 7.66274C15.201 6.83023 14.2074 6.43828 13.1045 6.34105C11.8618 6.23167 10.4763 6.29548 9.3187 6.79073C6.55075 7.97873 6.11931 11.2237 6.55075 13.861C6.58114 14.0524 6.68444 14.1679 6.81205 14.2195C6.82117 14.2408 6.83028 14.259 6.8394 14.2803C7.86029 16.1914 9.95371 17.4888 12.1383 17.4311ZM7.78433 13.7273C7.73267 13.6331 7.66887 13.5663 7.59595 13.5207C7.29515 11.6187 7.45315 9.22446 9.23362 8.0638C10.0904 7.50475 11.1387 7.41056 12.1383 7.40448C13.1075 7.3984 14.098 7.46221 14.8637 8.12153C16.1884 9.26092 16.6472 11.4941 16.2067 13.1318C15.7691 14.7573 14.2773 16.0365 12.6214 16.2947C10.6556 16.6016 8.69887 15.4379 7.78433 13.7273Z" fill="black"/>
<path d="M18.3365 6.0676C18.9746 6.18914 19.6308 5.82453 19.7949 5.17736C19.9863 4.42081 19.3027 3.7706 18.5644 3.92556C18.5249 3.93467 18.4915 3.94683 18.458 3.96202C18.0175 3.96506 17.5891 4.27193 17.4493 4.71249C17.2518 5.33536 17.7258 5.94911 18.3365 6.06456V6.0676ZM18.4763 4.96468C18.4672 4.94645 18.4702 4.92822 18.4763 4.96468V4.96468Z" fill="black"/>
<path d="M16.9085 23.8572C19.0809 23.6931 21.5724 23.1341 22.5841 20.9616C23.1219 19.8071 23.1827 18.5218 23.2769 17.2731C23.3954 15.7053 23.52 14.1375 23.6233 12.5697C23.8086 9.79263 23.9605 6.74516 23.0217 4.07444C22.5841 2.82568 21.8246 1.71971 20.5971 1.14546C19.2571 0.516522 17.6833 0.452716 16.2309 0.319029C12.7581 -0.00911429 9.26094 -0.0789965 5.76986 0.0881132C5.56629 0.0972283 5.42045 0.197494 5.33538 0.331182C3.24499 0.732245 1.53135 2.22408 0.847722 4.28713C0.419313 5.57843 0.355508 6.97303 0.25828 8.31903C0.148899 9.83517 0.0607867 11.3574 0.0182497 12.8766C-0.0577093 15.5868 0.0334416 18.5461 1.2974 21.0103C2.57351 23.4987 5.36272 23.5959 7.83595 23.7873C10.8439 24.0182 13.8975 24.082 16.9085 23.8572ZM3.48806 21.864C2.47932 21.2776 2.02661 20.1322 1.70758 19.0657C1.33386 17.8261 1.17283 16.5408 1.11814 15.2495C1.05737 13.8033 1.11814 12.354 1.19106 10.9107C1.26702 9.41891 1.33994 7.91796 1.51312 6.43525C1.66504 5.13787 1.99926 3.81618 2.91381 2.83783C3.74632 1.94759 4.89482 1.40068 6.1132 1.32776C6.27727 1.31865 6.40488 1.24877 6.49299 1.15154C9.03002 1.05431 11.5701 1.08166 14.1041 1.24269C15.4318 1.32776 16.7596 1.43107 18.0783 1.60425C19.2024 1.7501 20.3813 2.01139 21.1592 2.90163C21.8671 3.70984 22.1557 4.8158 22.3472 5.84884C22.5993 7.20091 22.6601 8.58337 22.6419 9.95366C22.6054 12.6548 22.3441 15.3711 22.1193 18.063C22.0251 19.1812 21.8701 20.4087 21.0771 21.2685C20.4056 22.0008 19.4455 22.3502 18.4976 22.5507C17.3642 22.7907 16.1914 22.815 15.0399 22.8545C13.6423 22.9001 12.2416 22.9001 10.8439 22.8576C9.48274 22.815 8.12155 22.73 6.76341 22.6024C5.66656 22.4991 4.46337 22.4322 3.48806 21.864Z" fill="black"/>
</g>
<defs>
<clipPath id="clip0_793_2461">
<rect width="23.763" height="24" fill="white"/>
</clipPath>
</defs>
</svg>
