<svg width="25" height="24" viewBox="0 0 25 24" fill="none" xmlns="http://www.w3.org/2000/svg">
<g clip-path="url(#clip0_793_2455)">
<path d="M4.40508 10.6083C4.02624 10.3499 3.4154 10.4174 2.98077 10.3851C2.30826 10.3381 1.63868 10.2941 0.966172 10.2471C0.540346 10.2177 0.381763 10.623 0.490422 10.9402C0.340649 11.0165 0.229053 11.1663 0.229053 11.3866C0.226116 13.7389 0.22318 16.0941 0.217306 18.4464C0.217306 19.6065 0.214369 20.7635 0.211433 21.9235C0.211433 22.3846 0.108647 22.9778 0.270167 23.4183C0.455181 23.9176 0.910374 23.9969 1.38612 23.9998C1.92061 24.0027 2.45803 23.9734 2.98958 23.9323C3.40072 23.9 3.96163 23.9323 4.31404 23.6856C4.63708 23.4624 4.65176 23.1129 4.66057 22.7546C4.67526 22.1232 4.67819 21.4918 4.68994 20.8604C4.72518 18.5463 4.76042 16.2322 4.79566 13.918C4.80447 13.2514 4.81622 12.5847 4.82503 11.921C4.8309 11.4424 4.84852 10.9079 4.40508 10.6054V10.6083ZM3.77075 11.8183C3.77075 12.0297 3.76487 12.2382 3.76194 12.4497C3.75313 12.9753 3.74725 13.501 3.73844 14.0267C3.70907 15.9209 3.68264 17.8121 3.65328 19.7063C3.63859 20.6519 3.62391 21.6005 3.60923 22.5461C3.60923 22.5726 3.60629 22.69 3.60335 22.7957C3.45652 22.7899 3.20102 22.8603 3.09236 22.8692C2.59312 22.9132 2.09094 22.9367 1.58876 22.9455C1.49772 22.9455 1.37731 22.9661 1.28627 22.9455C1.27453 22.9455 1.26278 22.9396 1.25103 22.9396C1.20405 22.7634 1.26865 22.3875 1.26865 22.2466C1.26865 21.7561 1.26865 21.2628 1.26865 20.7723C1.26865 19.8238 1.26865 18.8752 1.27159 17.9266C1.27453 15.7476 1.27746 13.5715 1.2804 11.3924C1.2804 11.3719 1.2804 11.3513 1.2804 11.3308C1.61225 11.3543 1.94116 11.3748 2.27301 11.3983C2.72233 11.4277 3.24213 11.3983 3.68264 11.4952C3.71788 11.504 3.74432 11.504 3.759 11.504C3.759 11.5128 3.76487 11.5216 3.76781 11.5334C3.79718 11.6039 3.76781 11.7448 3.76781 11.8183H3.77075Z" fill="black"/>
<path d="M4.44914 5.193C4.43446 5.09609 4.39334 4.99917 4.31405 4.91107C3.52407 4.02124 2.1585 3.72757 1.08953 4.27968C-0.0675432 4.87877 -0.278988 6.60556 0.340662 7.68041C0.986742 8.79636 2.54908 9.12821 3.65329 8.53206C4.77806 7.92415 5.12459 6.50278 4.60185 5.38682C4.56074 5.30166 4.50788 5.23705 4.44914 5.193ZM3.05126 7.65397C2.39931 7.94765 1.439 7.69803 1.18057 6.9844C0.942691 6.32364 1.03373 5.39857 1.7591 5.14307C2.41399 4.91107 3.11881 5.16069 3.56519 5.66287C3.58868 5.6893 3.60924 5.70986 3.63567 5.72748C3.64154 5.79209 3.65623 5.8567 3.68853 5.92424C3.9822 6.5527 3.68853 7.37205 3.05126 7.65691V7.65397Z" fill="black"/>
<path d="M19.958 15.9708C19.8875 14.3556 19.8787 12.7316 18.6189 11.5422C16.5015 9.54523 13.0156 9.77136 10.8982 11.6244C10.8542 11.4424 10.8042 11.2632 10.7484 11.087C10.6486 10.7669 10.5106 10.5085 10.1934 10.3616C9.8263 10.1942 9.35348 10.1884 8.95703 10.1443C8.42842 10.0856 7.89687 10.0592 7.36532 10.0533C7.18618 10.0533 7.05403 10.1238 6.96886 10.2324C6.69868 10.2236 6.43144 10.3939 6.45493 10.7405C6.7163 14.9253 6.8837 19.116 6.95418 23.3097C6.96005 23.6151 7.19499 23.8118 7.48279 23.8383C8.42254 23.9264 9.38285 23.9822 10.3255 23.9176C11.0392 23.8676 11.5531 23.5534 11.5766 22.784C11.6324 20.9485 11.2712 19.0837 11.4914 17.2512C11.5913 16.4113 11.8938 15.5626 12.5898 15.0369C13.2123 14.5641 14.0111 14.5024 14.619 15.0369C15.2651 15.6037 15.4678 16.4935 15.5353 17.3158C15.6117 18.2409 15.6087 19.1748 15.6381 20.1028C15.6674 21.0484 15.6616 22.0028 15.7262 22.9455C15.7467 23.2333 15.7937 23.5417 16.0257 23.7443C16.3576 24.0292 16.8186 23.9616 17.221 23.9528C17.6497 23.944 18.0814 23.9352 18.5102 23.9264C18.8949 23.9176 19.3677 23.9763 19.7348 23.8353C20.5101 23.5358 20.2429 22.4991 20.2164 21.856C20.1313 19.8972 20.0432 17.9384 19.958 15.9767V15.9708ZM17.914 22.8721C17.5528 22.8809 17.1358 22.831 16.7775 22.8897C16.7775 22.8369 16.7775 22.784 16.7775 22.7341C16.7687 22.4962 16.7628 22.2613 16.757 22.0234C16.7041 20.3142 16.7687 18.5522 16.5485 16.8577C16.3781 15.5332 15.7262 14.1118 14.3489 13.686C13.0332 13.2778 11.6794 14.1265 11.0245 15.2454C10.1464 16.749 10.3872 18.6579 10.443 20.3201C10.4606 20.8399 10.4783 21.3597 10.4959 21.8795C10.5047 22.1232 10.5135 22.364 10.5194 22.6078C10.5194 22.6372 10.537 22.7576 10.5311 22.8222C10.5164 22.828 10.49 22.8427 10.4548 22.8515C10.026 22.9631 9.44452 22.8809 9.00989 22.8721C8.6751 22.8633 8.34031 22.8457 8.00846 22.8222C7.93505 18.9163 7.7794 15.0134 7.54152 11.1134C8.23459 11.1252 8.9306 11.1722 9.61485 11.2926C9.67359 11.3014 9.70002 11.3014 9.70883 11.2955C9.70883 11.2985 9.71177 11.3043 9.71764 11.3131C9.78518 11.4218 9.79399 11.6068 9.8263 11.736C9.92027 12.1002 10.0113 12.4643 10.1053 12.8314C10.1963 13.1868 10.7367 13.3806 10.9892 13.0634C12.5721 11.0841 15.8348 10.4468 17.8142 12.2411C19.0359 13.3483 18.8626 15.0839 18.9302 16.5934C19.0094 18.3818 19.0858 20.1674 19.1651 21.9558C19.1739 22.1614 19.1827 22.367 19.1915 22.5755C19.1915 22.6313 19.1798 22.7576 19.1915 22.8369C18.7833 22.7987 18.3164 22.8721 17.917 22.878L17.914 22.8721ZM19.2473 22.9661C19.2532 22.9808 19.2561 22.9866 19.2473 22.9661V22.9661Z" fill="black"/>
</g>
<defs>
<clipPath id="clip0_793_2455">
<rect width="24.3348" height="24" fill="white"/>
</clipPath>
</defs>
</svg>
