<svg width="32" height="32" viewBox="0 0 32 32" fill="none" xmlns="http://www.w3.org/2000/svg">
<rect width="32" height="32" rx="16" fill="white"/>
<path d="M13.6379 19.275C14.9559 20.593 17.0928 20.593 18.4108 19.275L18.4109 19.275L20.8199 16.866C21.2668 16.4343 21.2792 15.7221 20.8475 15.2752C20.4159 14.8283 19.7037 14.816 19.2568 15.2476C19.2474 15.2566 19.2382 15.2659 19.2291 15.2752L17.1419 17.3617L17.1246 7.125C17.1246 6.50368 16.6209 6 15.9996 6C15.3783 6 14.8746 6.50368 14.8746 7.125L14.8904 17.3452L12.8196 15.2745C12.3727 14.8429 11.6605 14.8552 11.2289 15.3021C10.8078 15.7381 10.8078 16.4293 11.2289 16.8652L13.6379 19.275Z" fill="#1A1A1A"/>
<path d="M23.875 16.875C23.2537 16.875 22.75 17.3787 22.75 18V21.4432C22.7496 21.6125 22.6125 21.7496 22.4433 21.75H9.55674C9.3875 21.7496 9.25039 21.6125 9.25 21.4432V18C9.25 17.3787 8.74632 16.875 8.125 16.875C7.50368 16.875 7 17.3787 7 18V21.4432C7.00165 22.8546 8.14539 23.9984 9.55674 24H22.4432C23.8546 23.9984 24.9983 22.8546 25 21.4433V18C25 17.3787 24.4963 16.875 23.875 16.875Z" fill="#1A1A1A"/>
</svg>
