<svg width="20" height="2" viewBox="0 0 20 2" fill="none" xmlns="http://www.w3.org/2000/svg">
<path d="M0.859592 0.133609C1.64885 0.0909666 4.44816 0.0108059 5.14709 0.0108059C5.84602 0.0108056 6.69463 -0.0103663 7.83792 0.00657168C8.72823 0.00239173 9.70105 0.00646345 10.6994 0.0106421L10.7385 0.0108059L13.0632 0.023513C14.2997 0.0404503 15.5022 0.0658558 16.5439 0.0658556C17.8142 0.0743245 19.1586 0.0924168 19.4978 0.199847C19.837 0.307277 19.836 0.430699 19.8293 0.515131C19.8227 0.599562 19.7025 0.664713 19.5696 0.701286C19.2261 0.79576 15.3902 1.00193 12.2948 1.04851C11.0541 1.06968 9.80073 1.06121 8.65743 1.04427C7.19232 1.01887 5.87118 0.976522 5.02006 0.921474C4.16894 0.866427 0.94654 0.887598 0.94654 0.887598C0.94654 0.887598 0.144853 0.851216 0.0329352 0.739875C-0.0789826 0.628533 0.0703318 0.176251 0.859592 0.133609Z" fill="black"/>
</svg>
